<?xml version="1.0" encoding="UTF-8" standalone="no"?>
<svg
   xmlns:dc="http://purl.org/dc/elements/1.1/"
   xmlns:cc="http://web.resource.org/cc/"
   xmlns:rdf="http://www.w3.org/1999/02/22-rdf-syntax-ns#"
   xmlns:svg="http://www.w3.org/2000/svg"
   xmlns="http://www.w3.org/2000/svg"
   xmlns:sodipodi="http://sodipodi.sourceforge.net/DTD/sodipodi-0.dtd"
   xmlns:inkscape="http://www.inkscape.org/namespaces/inkscape"
   version="1.1"
   id="Ebene_1"
   width="420.934"
   height="141.421"
   viewBox="0 0 420.934 141.421"
   overflow="visible"
   enable-background="new 0 0 420.934 141.421"
   xml:space="preserve"
   sodipodi:version="0.32"
   inkscape:version="0.45.1"
   sodipodi:docname="HNU-Logo.svg"
   inkscape:output_extension="org.inkscape.output.svg.inkscape"
   sodipodi:docbase="C:\Home\xavax\Desktop"><metadata
   id="metadata72"><rdf:RDF><cc:Work
       rdf:about=""><dc:format>image/svg+xml</dc:format><dc:type
         rdf:resource="http://purl.org/dc/dcmitype/StillImage" /></cc:Work></rdf:RDF></metadata><defs
   id="defs70" /><sodipodi:namedview
   inkscape:window-height="579"
   inkscape:window-width="801"
   inkscape:pageshadow="2"
   inkscape:pageopacity="0.0"
   guidetolerance="10.0"
   gridtolerance="10.0"
   objecttolerance="10.0"
   borderopacity="1.0"
   bordercolor="#666666"
   pagecolor="#ffffff"
   id="base"
   inkscape:zoom="1.703355"
   inkscape:cx="210.467"
   inkscape:cy="70.710503"
   inkscape:window-x="198"
   inkscape:window-y="198"
   inkscape:current-layer="Ebene_1" />
<path
   fill="none"
   d="M0,0 M420.934,0H0v141.421h420.934V0z"
   id="path3" />
<polyline
   fill="#01031C"
   points="247.441,37.561 249.523,37.561 249.523,50.784 247.441,50.784 247.441,46.738 241.098,46.738   241.098,50.784 239.02,50.784 239.02,37.561 241.098,37.561 241.098,44.893 247.441,44.893 247.441,37.561 "
   id="polyline5" />
<path
   fill="#01031C"
   d="M254.559,44.172c0-3.907,3.035-6.788,6.826-6.788s6.826,2.881,6.826,6.788c0,3.91-3.035,6.788-6.826,6.788  S254.559,48.082,254.559,44.172 M266.053,44.172c0-2.8-1.926-4.899-4.668-4.899c-2.74,0-4.668,2.1-4.668,4.899  c0,2.801,1.928,4.902,4.668,4.902C264.127,49.074,266.053,46.973,266.053,44.172z"
   id="path7" />
<path
   fill="#01031C"
   d="M272.605,44.172c0-3.907,2.975-6.788,6.75-6.788c2.449,0,4.139,0.957,5.289,2.57l-1.596,1.126  c-0.873-1.186-2.002-1.808-3.754-1.808c-2.623,0-4.533,2.1-4.533,4.899c0,2.86,1.945,4.902,4.613,4.902  c1.709,0,2.973-0.642,3.965-1.926l1.613,1.11c-1.359,1.806-3.09,2.701-5.658,2.701C275.523,50.96,272.605,48.082,272.605,44.172"
   id="path9" />
<polyline
   fill="#01031C"
   points="298.277,37.561 300.359,37.561 300.359,50.784 298.277,50.784 298.277,46.738 291.938,46.738   291.938,50.784 289.855,50.784 289.855,37.561 291.938,37.561 291.938,44.893 298.277,44.893 298.277,37.561 "
   id="polyline11" />
<path
   fill="#01031C"
   d="M306.777,47.305c0.602,1.168,1.631,1.79,2.992,1.79c1.402,0,2.336-0.662,2.336-1.732  c0-1.246-0.934-1.672-2.102-2.198l-0.918-0.407c-1.941-0.854-3.264-1.868-3.264-3.929c0-2.023,1.498-3.444,3.674-3.444  c1.691,0,2.938,0.681,3.777,2.082l-1.578,1.032c-0.508-0.855-1.168-1.286-2.16-1.286c-1.068,0-1.688,0.622-1.688,1.538  c0,1.05,0.641,1.46,2.078,2.101l0.914,0.408c2.004,0.896,3.326,1.81,3.326,4.046c0,2.432-1.867,3.655-4.377,3.655  c-2.236,0-3.871-1.088-4.766-2.781L306.777,47.305"
   id="path13" />
<path
   fill="#01031C"
   d="M318.426,44.172c0-3.907,2.975-6.788,6.746-6.788c2.449,0,4.145,0.957,5.291,2.57l-1.596,1.126  c-0.875-1.186-2.004-1.808-3.754-1.808c-2.625,0-4.531,2.1-4.531,4.899c0,2.86,1.945,4.902,4.609,4.902  c1.711,0,2.977-0.642,3.967-1.926l1.615,1.11c-1.361,1.806-3.094,2.701-5.66,2.701C321.344,50.96,318.426,48.082,318.426,44.172"
   id="path15" />
<polyline
   fill="#01031C"
   points="344.098,37.561 346.176,37.561 346.176,50.784 344.098,50.784 344.098,46.738 337.758,46.738   337.758,50.784 335.676,50.784 335.676,37.561 337.758,37.561 337.758,44.893 344.098,44.893 344.098,37.561 "
   id="polyline17" />
<path
   fill="#01031C"
   d="M351.777,46.116v-8.556h2.082v8.441c0,2.118,1.049,3.072,2.975,3.072c1.906,0,2.955-0.954,2.955-3.072  v-8.441h2.082v8.556c0,3.23-2.18,4.844-5.037,4.844C353.957,50.96,351.777,49.347,351.777,46.116"
   id="path19" />
<polyline
   fill="#01031C"
   points="367.471,37.561 369.553,37.561 369.553,48.938 375.387,48.938 375.387,50.784 367.471,50.784   367.471,37.561 "
   id="polyline21" />
<polyline
   fill="#01031C"
   points="380.289,37.561 388.707,37.561 388.707,39.41 382.371,39.41 382.371,43.986 387.988,43.986   387.988,45.794 382.371,45.794 382.371,48.938 388.982,48.938 388.982,50.784 380.289,50.784 380.289,37.561 "
   id="polyline23" />
<polyline
   fill="#01031C"
   points="240.965,67.07 240.965,75.765 239.02,75.765 239.02,62.347 239.176,62.347 247.654,71.229   247.654,62.538 249.598,62.538 249.598,75.958 249.441,75.958 240.965,67.07 "
   id="polyline25" />
<polyline
   fill="#01031C"
   points="255.258,62.538 263.68,62.538 263.68,64.389 257.34,64.389 257.34,68.964 262.961,68.964   262.961,70.772 257.34,70.772 257.34,73.917 263.953,73.917 263.953,75.765 255.258,75.765 255.258,62.538 "
   id="polyline27" />
<path
   fill="#01031C"
   d="M268.91,71.097v-8.559h2.082v8.441c0,2.119,1.051,3.074,2.975,3.074c1.908,0,2.959-0.955,2.959-3.074v-8.441  h2.078v8.559c0,3.227-2.18,4.842-5.037,4.842C271.09,75.938,268.91,74.323,268.91,71.097"
   id="path29" />
<rect
   x="283.926"
   y="69.873"
   fill="#01031C"
   width="3.576"
   height="1.771"
   id="rect31" />
<path
   fill="#01031C"
   d="M292.426,71.097v-8.559h2.078v8.441c0,2.119,1.053,3.074,2.977,3.074c1.906,0,2.953-0.955,2.953-3.074  v-8.441h2.082v8.559c0,3.227-2.176,4.842-5.035,4.842C294.602,75.938,292.426,74.323,292.426,71.097"
   id="path33" />
<polyline
   fill="#01031C"
   points="308.117,62.538 310.199,62.538 310.199,73.917 316.031,73.917 316.031,75.765 308.117,75.765   308.117,62.538 "
   id="polyline35" />
<polyline
   fill="#01031C"
   points="320.934,62.269 321.031,62.269 327.488,69.716 333.867,62.269 333.963,62.269 333.963,75.765   331.998,75.765 331.998,67.188 327.488,72.573 327.391,72.573 322.898,67.188 322.898,75.765 320.934,75.765 320.934,62.269 "
   id="polyline37" />
<path
   fill="#01031C"
   d="M238.941,96.073v-8.555h2.082v8.439c0,2.119,1.049,3.074,2.975,3.074c1.906,0,2.955-0.955,2.955-3.074  v-8.439h2.082v8.555c0,3.23-2.18,4.844-5.037,4.844C241.121,100.917,238.941,99.304,238.941,96.073"
   id="path39" />
<polyline
   fill="#01031C"
   points="256.58,92.048 256.58,100.741 254.637,100.741 254.637,87.323 254.793,87.323 263.273,96.212   263.273,87.519 265.217,87.519 265.217,100.938 265.061,100.938 256.58,92.048 "
   id="polyline41" />
<rect
   x="270.934"
   y="87.519"
   fill="#01031C"
   width="2.08"
   height="13.223"
   id="rect43" />
<polyline
   fill="#01031C"
   points="277.723,87.519 279.916,87.519 283.691,96.405 287.348,87.519 289.445,87.519 283.732,100.938   283.613,100.938 277.723,87.519 "
   id="polyline45" />
<polyline
   fill="#01031C"
   points="294.094,87.519 302.516,87.519 302.516,89.368 296.176,89.368 296.176,93.944 301.797,93.944   301.797,95.753 296.176,95.753 296.176,98.897 302.789,98.897 302.789,100.741 294.094,100.741 294.094,87.519 "
   id="polyline47" />
<path
   fill="#01031C"
   d="M317.08,100.741h-2.471l-2.254-3.207c-0.289,0.039-0.621,0.059-0.953,0.059h-1.301v3.148h-2.082V87.519  h3.383c3.637,0,5.643,2.004,5.643,5.055c0,2.045-0.914,3.621-2.645,4.418L317.08,100.741 M311.324,95.804  c2.551,0,3.578-1.207,3.578-3.23c0-2.004-1.047-3.205-3.578-3.205h-1.223v6.436H311.324z"
   id="path49" />
<path
   fill="#01031C"
   d="M322.762,97.263c0.605,1.168,1.635,1.789,2.996,1.789c1.4,0,2.336-0.662,2.336-1.732  c0-1.246-0.936-1.672-2.104-2.195l-0.914-0.408c-1.943-0.855-3.266-1.867-3.266-3.932c0-2.021,1.496-3.439,3.674-3.439  c1.691,0,2.938,0.678,3.773,2.08l-1.574,1.029c-0.508-0.852-1.168-1.283-2.16-1.283c-1.07,0-1.691,0.623-1.691,1.537  c0,1.051,0.641,1.459,2.082,2.1l0.912,0.408c2.004,0.896,3.326,1.811,3.326,4.047c0,2.432-1.867,3.654-4.375,3.654  c-2.238,0-3.871-1.086-4.766-2.781L322.762,97.263"
   id="path51" />
<rect
   x="335.211"
   y="87.519"
   fill="#01031C"
   width="2.078"
   height="13.223"
   id="rect53" />
<polyline
   fill="#01031C"
   points="345.98,89.368 342.053,89.368 342.053,87.519 351.99,87.519 351.99,89.368 348.063,89.368   348.063,100.741 345.98,100.741 345.98,89.368 "
   id="polyline55" />
<polyline
   fill="#01031C"
   points="355.668,87.519 357.961,87.519 361.715,94.421 365.412,87.519 367.59,87.519 362.727,96.522   362.727,100.741 360.646,100.741 360.646,96.542 355.668,87.519 "
   id="polyline57" />
<path
   fill="#6182BF"
   d="M74.841,80.163c-0.124-0.02-0.248-0.035-0.378-0.035H45.551c-1.154,0-2.099,0.945-2.099,2.098v17.594  c0,1.152-0.728,1.492-1.618,0.754l-0.97-0.803c-0.042-0.018,2.358,2.008,2.358,2.008c0.892,0.738,1.618,0.398,1.618-0.756V83.431  c0-1.154,0.943-2.1,2.1-2.1h28.086v-0.375c0-0.234-0.048-0.457-0.122-0.67C74.889,80.245,74.86,80.206,74.841,80.163 M85.257,43.593  l-1.044-0.868c0.726,0.808,1.273,2.104,1.273,3.104v53.991c0,1.152-0.728,1.492-1.618,0.754l-0.97-0.803  c-0.04-0.018,2.358,2.008,2.358,2.008c0.89,0.738,1.617,0.398,1.617-0.756v-53.99C86.874,45.876,86.146,44.33,85.257,43.593z   M151.929,41.716l-1.328-0.941c0.914,0.689,1.649,2.134,1.649,3.264v55.953c0,1.156-0.666,1.43-1.479,0.615l-0.642-0.645  c-0.002,0-0.005,0-0.007,0l1.841,1.846c0.813,0.818,1.678,0.545,1.678-0.611V45.032C153.641,43.878,152.87,42.386,151.929,41.716z   M180.685,90.425c0.25,0.137,0.512,0.266,0.78,0.383c-2.219-2.156-3.378-5.477-3.378-10.082V45.032c0-1.154-0.786-2.622-1.746-3.262  l-1.383-0.916c0.956,0.644,1.74,2.104,1.74,3.254v35.693C176.698,84.815,178.07,88.3,180.685,90.425z M216.621,41.771l-1.385-0.918  c0.963,0.644,1.744,2.104,1.744,3.256v36.193c0,13.721-9.174,20.643-21.278,20.764c-0.105,0-6.138,0-6.246,0  c-4.842,0-9.216-1.07-12.754-3.201c3.748,2.746,8.646,4.123,14.143,4.123c0.107,0,6.142,0,6.248,0  c12.102-0.121,21.278-7.041,21.278-20.762V45.032C218.371,43.878,217.584,42.41,216.621,41.771z M43.452,70.106  c0,0.277,0.057,0.545,0.156,0.787c0.024,0.057,0.054,0.109,0.082,0.164c0.268,0.52,0.742,0.91,1.316,1.066  c-0.106-0.25-0.166-0.525-0.166-0.813V47.032c0-1.156-0.727-2.702-1.618-3.439l-1.042-0.868c0.724,0.808,1.271,2.104,1.271,3.104  V70.106z M109.94,59.552c-0.386-0.01-0.642,0.366-0.642,1.08v39.344c0,1.055-0.593,1.398-1.354,0.867l1.174,1.041  c0.864,0.768,1.57,0.447,1.57-0.703V61.834c0-0.676,0.164-1.04,0.462-1.069c0.184-0.019,0.422,0.098,0.706,0.354l-1.224-1.226  C110.379,59.675,110.143,59.557,109.94,59.552z"
   id="path59" />
<path
   fill="#E8E544"
   d="M76.561,70.106V38.422c0-0.922,0.466-1.313,1.105-1.065c0.152,0.062,0.314,0.152,0.486,0.29l-1.51-1.252  c-0.886-0.738-1.616-0.398-1.616,0.758v31.684c0,1.154-0.946,2.101-2.098,2.101H44.841v0.375c0,0.287,0.06,0.563,0.166,0.813  c0.174,0.047,0.354,0.08,0.544,0.08h28.912C75.616,72.204,76.561,71.261,76.561,70.106 M78.179,95.851  c-0.889-0.738-1.618-2.285-1.618-3.441V82.226c0-0.287-0.061-0.563-0.166-0.816c-0.268-0.629-0.838-1.105-1.526-1.242  c-0.008,0-0.018,0-0.027-0.004c0.02,0.043,0.048,0.082,0.063,0.123c0.074,0.213,0.122,0.436,0.122,0.67V91.14  c0,0.441,0.108,0.941,0.29,1.434c0.294,0.789,0.78,1.551,1.326,2.008l5.691,4.723c0.011,0.012,0.019,0.016,0.028,0.023  L78.179,95.851z M36.145,95.851c-0.886-0.738-1.616-2.285-1.616-3.441V38.422c0-0.922,0.466-1.313,1.104-1.065  c0.153,0.06,0.315,0.15,0.485,0.288l-1.508-1.25c-0.888-0.738-1.616-0.398-1.616,0.758V91.14c0,0.441,0.108,0.945,0.29,1.434  c0.294,0.789,0.78,1.551,1.326,2.008l5.69,4.723c0.01,0.012,0.018,0.016,0.029,0.023l-3.138-2.605L36.145,95.851z M101.956,95.405  c-0.582-0.824-0.995-1.953-0.995-2.836V38.349c0-0.721,0.262-1.101,0.655-1.086c0.229,0.008,0.5,0.153,0.79,0.432l-1.439-1.432  c-0.818-0.813-1.488-0.532-1.488,0.621v54.369c0,1.156,0.704,2.727,1.568,3.496l5.201,4.617c0.002,0.002,0.007,0.004,0.009,0.008  l-3.729-3.313C102.326,95.882,102.135,95.655,101.956,95.405z M149.391,99.229l0.731,0.732c0.002,0,0.005,0,0.007,0l-0.688-0.691  C149.423,99.257,149.406,99.241,149.391,99.229z M142.429,37.066v39.198c0,0.855-0.368,1.227-0.893,1.033  c-0.172-0.064-0.361-0.189-0.56-0.381l0.794,0.787l0.65,0.648c0.208,0.209,0.407,0.342,0.59,0.41  c0.142,0.053,0.27,0.057,0.386,0.029c0.312-0.076,0.514-0.436,0.514-1.063V38.112c0-1.136,0.748-1.534,1.668-0.908l-1.438-1.021  C143.2,35.515,142.429,35.91,142.429,37.066z M167.776,80.302V38.185c0-1.154,0.788-1.578,1.746-0.938l-1.479-0.987  c-0.963-0.641-1.748-0.219-1.748,0.936v42.117c0,8.426,3.464,14.281,8.951,17.578C170.624,93.466,167.776,87.94,167.776,80.302z   M208.324,36.259c-0.96-0.641-1.748-0.219-1.748,0.936v41.617c0,8.975-4.388,13.072-12.363,13.176c-0.101,0-6.133,0-6.238,0  c-2.53,0-4.706-0.385-6.51-1.18c-0.269-0.117-0.53-0.246-0.78-0.383c0.444,0.359,0.926,0.684,1.439,0.965  c1.95,1.07,4.404,1.59,7.332,1.59c0.106,0,6.135,0,6.236-0.004c7.979-0.102,12.366-4.201,12.366-13.174V38.185  c0-1.154,0.788-1.578,1.748-0.938L208.324,36.259z"
   id="path61" />
<path
   fill="#01031C"
   d="M83.868,42.389l-5.689-4.725c-0.01-0.008-0.019-0.012-0.026-0.018c-0.172-0.138-0.334-0.229-0.486-0.29  c-0.64-0.248-1.105,0.144-1.105,1.065v31.685c0,1.154-0.944,2.098-2.098,2.098H45.551c-0.19,0-0.37-0.033-0.544-0.08  c-0.574-0.156-1.049-0.547-1.316-1.066c-0.028-0.055-0.058-0.107-0.082-0.164c-0.1-0.242-0.156-0.51-0.156-0.787V45.828  c0-1-0.548-2.296-1.271-3.104c-0.112-0.124-0.229-0.238-0.347-0.336l-5.689-4.725c-0.008-0.008-0.018-0.012-0.026-0.02  c-0.17-0.138-0.332-0.229-0.485-0.288c-0.639-0.248-1.104,0.144-1.104,1.065v53.987c0,1.156,0.73,2.703,1.616,3.441l1.048,0.871  l3.672,3.049l0.97,0.803c0.891,0.738,1.618,0.398,1.618-0.754V82.226c0-1.152,0.944-2.098,2.099-2.098h28.912  c0.13,0,0.254,0.016,0.378,0.035c0.01,0.004,0.02,0.004,0.027,0.004c0.688,0.137,1.259,0.613,1.526,1.242  c0.105,0.254,0.166,0.529,0.166,0.816v10.184c0,1.156,0.729,2.703,1.618,3.441l4.72,3.92l0.97,0.803  c0.891,0.738,1.618,0.398,1.618-0.754V45.828c0-1-0.548-2.296-1.273-3.104C84.103,42.601,83.986,42.486,83.868,42.389"
   id="path63" />
<path
   fill="#01031C"
   d="M215.236,40.853c0,0-0.002-0.002-0.004-0.004l-5.426-3.603c-0.96-0.64-1.748-0.216-1.748,0.938v41.617  c0,15.291-13.3,13.178-15.464,13.178c-2.67,0-7.272,0.225-10.471-1.59c-0.51-0.289-0.995-0.605-1.439-0.965  c-2.614-2.125-3.986-5.609-3.986-10.623V44.108c0-1.15-0.784-2.61-1.74-3.254c-0.004-0.002-0.006-0.004-0.008-0.006l-1.438-0.954  l-3.99-2.648c-0.958-0.64-1.746-0.216-1.746,0.938v42.117c0,7.639,2.848,13.164,7.47,16.588c0.469,0.348,0.954,0.672,1.456,0.975  c3.538,2.131,7.912,3.201,12.754,3.201c0.108,0,6.141,0,6.246,0c12.104-0.121,21.278-7.043,21.278-20.764V44.108  C216.98,42.956,216.199,41.496,215.236,40.853"
   id="path65" />
<path
   fill="#01031C"
   d="M150.601,40.774c-0.021-0.016-0.04-0.038-0.063-0.052l-4.918-3.492c-0.014-0.013-0.027-0.017-0.042-0.026  c-0.92-0.626-1.668-0.228-1.668,0.908v39.617c0,0.627-0.202,0.986-0.514,1.063c-0.116,0.027-0.244,0.023-0.386-0.029  c-0.183-0.068-0.382-0.201-0.59-0.41l-0.65-0.648l-0.794-0.787l-37.73-38.396l-0.8-0.792c-0.012-0.015-0.023-0.021-0.04-0.034  c-0.29-0.278-0.562-0.424-0.79-0.432c-0.394-0.015-0.655,0.365-0.655,1.086v54.221c0,0.883,0.413,2.012,0.995,2.836  c0.179,0.25,0.37,0.477,0.572,0.656l3.729,3.313l1.474,1.307c0.072,0.064,0.144,0.111,0.214,0.162  c0.762,0.531,1.354,0.188,1.354-0.867V60.632c0-0.714,0.256-1.09,0.642-1.08c0.202,0.005,0.438,0.123,0.692,0.341l1.224,1.226  l37.432,38.021c0.034,0.035,0.068,0.059,0.103,0.09c0.016,0.012,0.032,0.027,0.05,0.041l1.33,1.336  c0.813,0.814,1.479,0.541,1.479-0.615V44.038C152.25,42.908,151.515,41.464,150.601,40.774"
   id="path67" />
</svg>